<?xml version="1.0" standalone="no"?>
<!DOCTYPE svg PUBLIC "-//W3C//DTD SVG 20010904//EN"
 "http://www.w3.org/TR/2001/REC-SVG-20010904/DTD/svg10.dtd">
<svg version="1.0" xmlns="http://www.w3.org/2000/svg"
 width="512.000000pt" height="512.000000pt" viewBox="0 0 512.000000 512.000000"
 preserveAspectRatio="xMidYMid meet">

<g transform="translate(0.000000,512.000000) scale(0.100000,-0.100000)"
fill="#000000" stroke="none">
<path d="M3960 3567 l0 -577 100 0 100 0 0 -1005 0 -1005 -1595 0 c-877 0
-1595 -3 -1595 -8 0 -4 195 -201 433 -438 l432 -432 110 -26 c602 -143 1206
-78 1744 190 280 139 449 261 676 489 218 218 343 388 476 647 196 385 294
828 275 1253 -7 159 -29 344 -45 373 -5 9 -258 264 -560 567 l-551 550 0 -578z"/>
<path d="M1629 2330 c-187 -33 -300 -169 -300 -361 0 -105 28 -178 95 -244 95
-94 228 -132 360 -103 l68 16 27 -30 26 -30 63 50 62 50 -20 25 -20 26 37 67
c33 61 37 77 41 155 5 99 -10 159 -59 233 -73 109 -235 172 -380 146z m126
-161 c86 -24 143 -121 132 -222 -9 -71 -16 -76 -52 -32 l-33 38 -61 -48 c-33
-26 -61 -50 -61 -53 0 -2 11 -17 25 -34 32 -38 32 -48 -4 -48 -212 0 -265 324
-64 395 47 17 67 18 118 4z"/>
<path d="M2647 2324 c-4 -4 -7 -109 -7 -233 0 -209 -2 -228 -20 -259 -27 -44
-80 -66 -142 -59 -58 7 -92 28 -112 72 -13 27 -16 73 -16 254 l0 221 -90 0
-90 0 0 -247 c0 -239 1 -250 24 -299 51 -109 148 -159 311 -159 94 0 106 3
167 33 68 33 106 72 136 140 14 31 17 75 17 287 l0 250 -85 3 c-47 1 -89 0
-93 -4z"/>
<path d="M2955 2317 c-3 -6 -4 -165 -3 -352 l3 -340 88 -3 87 -3 0 356 0 355
-85 0 c-60 0 -87 -4 -90 -13z"/>
<path d="M3240 2250 l0 -80 145 0 c80 0 145 -2 145 -5 0 -3 -65 -92 -145 -198
l-145 -194 0 -76 0 -77 270 0 270 0 0 80 0 79 -151 3 -150 3 145 194 146 194
0 79 0 78 -265 0 -265 0 0 -80z"/>
</g>
</svg>
